<?xml version="1.0" encoding="UTF-8" standalone="no"?>
<!-- Created with Serif DrawPlus 11, 0, 0, 18 (Sep 30, 15:06:09) (http://www.serif.com) -->
<svg version="1.1" xmlns="http://www.w3.org/2000/svg" xmlns:xlink="http://www.w3.org/1999/xlink" width="24" height="24">
	<g id="Layer_1">
		<g id="Layer_1">
			<path id="dp_path001" fill="white" fill-rule="evenodd" d="M 0.774667,6.82 L 0.774667,17.18 C 0.774667,17.9707 1.644,18.4507 2.31467,18.02 L 10.4547,12.84 C 11.0747,12.4507 11.0747,11.5493 10.4547,11.1493 L 2.31467,5.98 C 1.644,5.54933 0.774667,6.02933 0.774667,6.82 Z "/>
			<path id="dp_path002" fill="white" fill-rule="evenodd" d="M 13.1373,18.92 C 14.2373,18.92 15.1373,18.02 15.1373,16.92 L 15.1373,6.92 C 15.1373,5.82 14.2373,4.92 13.1373,4.92 S 11.1373,5.82 11.1373,6.92 L 11.1373,16.92 C 11.1373,18.02 12.0373,18.92 13.1373,18.92 Z M 19.1373,6.92 L 19.1373,16.92 C 19.1373,18.02 20.0373,18.92 21.1373,18.92 S 23.1373,18.02 23.1373,16.92 L 23.1373,6.92 C 23.1373,5.82 22.2373,4.92 21.1373,4.92 S 19.1373,5.82 19.1373,6.92 Z "/>
		</g>
	</g>
</svg>