<?xml version="1.0" encoding="UTF-8" standalone="no"?>
<!-- Created with Serif DrawPlus 11, 0, 0, 18 (Sep 30, 15:06:09) (http://www.serif.com) -->
<svg version="1.1" xmlns="http://www.w3.org/2000/svg" xmlns:xlink="http://www.w3.org/1999/xlink" width="12.0013" height="12.0013">
	<path id="dp_path001" transform="matrix(1,0,0,1,-6,-6)" fill="white" fill-rule="evenodd" d="M 7.58,16.8907 L 13.3493,12.82 C 13.9093,12.42 13.9093,11.58 13.3493,11.1907 L 7.58,7.10933 C 6.90933,6.65067 6,7.12 6,7.93067 L 6,16.0693 C 6,16.88 6.90933,17.3507 7.58,16.8907 Z M 16,7 L 16,17 C 16,17.5493 16.4507,18 17,18 S 18,17.5493 18,17 L 18,7 C 18,6.45067 17.5493,6 17,6 S 16,6.45067 16,7 Z "/>
</svg>