<?xml version="1.0" encoding="UTF-8" standalone="no"?>
<!-- Created with Serif DrawPlus 11, 0, 0, 18 (Sep 30, 15:06:09) (http://www.serif.com) -->
<svg version="1.1" xmlns="http://www.w3.org/2000/svg" xmlns:xlink="http://www.w3.org/1999/xlink" width="18.0013" height="16.8013">
	<path id="dp_path001" transform="matrix(1,0,0,1,-3,-3.6)" fill="white" fill-rule="evenodd" d="M 3,10 L 3,14 C 3,14.5493 3.45067,15 4,15 L 7,15 L 10.2893,18.2907 C 10.92,18.92 12,18.4693 12,17.58 L 12,6.41067 C 12,5.52 10.92,5.06933 10.2893,5.7 L 7,9 L 4,9 C 3.45067,9 3,9.44933 3,10 Z M 16.5,12 C 16.5,10.2293 15.48,8.71067 14,7.97067 L 14,16.02 C 15.48,15.2907 16.5,13.7707 16.5,12 Z M 14,4.45067 L 14,4.65067 C 14,5.02933 14.2507,5.36 14.6,5.5 C 17.18,6.53067 19,9.06 19,12 S 17.18,17.4693 14.6,18.5 C 14.24,18.64 14,18.9707 14,19.3507 L 14,19.5493 C 14,20.18 14.6293,20.62 15.2107,20.4 C 18.6,19.1093 21,15.84 21,12 S 18.6,4.88933 15.2107,3.6 C 14.6293,3.36933 14,3.82 14,4.45067 Z "/>
</svg>