<?xml version="1.0" encoding="UTF-8" standalone="no"?>
<!-- Created with Serif DrawPlus 11, 0, 0, 18 (Sep 30, 15:06:09) (http://www.serif.com) -->
<svg version="1.1" xmlns="http://www.w3.org/2000/svg" xmlns:xlink="http://www.w3.org/1999/xlink" width="13.5013" height="13.0213">
	<path id="dp_path001" transform="matrix(1,0,0,1,-5,-5.48533)" fill="white" fill-rule="evenodd" d="M 18.5,12 C 18.5,10.2293 17.48,8.71067 16,7.97067 L 16,16.02 C 17.48,15.2907 18.5,13.7707 18.5,12 Z M 5,10 L 5,14 C 5,14.5493 5.45067,15 6,15 L 9,15 L 12.2907,18.2907 C 12.92,18.92 14,18.4693 14,17.58 L 14,6.41067 C 14,5.52 12.92,5.06933 12.2907,5.7 L 9,9 L 6,9 C 5.45067,9 5,9.44933 5,10 Z "/>
</svg>