<?xml version="1.0" encoding="UTF-8" standalone="no"?>
<!-- Created with Serif DrawPlus 11, 0, 0, 18 (Sep 30, 15:06:09) (http://www.serif.com) -->
<svg version="1.1" xmlns="http://www.w3.org/2000/svg" xmlns:xlink="http://www.w3.org/1999/xlink" width="12.0107" height="12.0013">
	<path id="dp_path001" transform="matrix(1,0,0,1,-6,-6)" fill="white" fill-rule="evenodd" d="M 7,6 C 7.54933,6 8,6.45067 8,7 L 8,17 C 8,17.5493 7.54933,18 7,18 S 6,17.5493 6,17 L 6,7 C 6,6.45067 6.45067,6 7,6 Z M 10.66,12.82 L 16.4293,16.8907 C 17.0907,17.36 18.0093,16.88 18.0093,16.0693 L 18.0093,7.93067 C 18.0093,7.12 17.1,6.65067 16.4293,7.10933 L 10.66,11.18 C 10.0907,11.58 10.0907,12.42 10.66,12.82 Z "/>
</svg>