<?xml version="1.0" encoding="UTF-8" standalone="no"?>
<!-- Created with Serif DrawPlus 11, 0, 0, 18 (Sep 30, 15:06:09) (http://www.serif.com) -->
<svg version="1.1" xmlns="http://www.w3.org/2000/svg" xmlns:xlink="http://www.w3.org/1999/xlink" width="20.236" height="20.2333">
	<path id="dp_path001" transform="matrix(1,0,0,1,-2.83867,-1.82667)" fill="white" fill-rule="evenodd" d="M 7,10 C 7,9.44933 7.45067,9 8,9 L 8.88267,9 L 7.4,7.51733 C 7.32267,7.44 7.25867,7.35333 7.212,7.26133 L 7.21067,7.26 C 6.16667,8.536 5.54267,10.1653 5.54267,11.9427 C 5.54267,16.0347 8.86133,19.3533 12.956,19.3533 C 14.7533,19.3533 16.4013,18.7133 17.6853,17.6493 C 17.5373,17.6 17.3987,17.516 17.2813,17.3987 L 16,16.1173 L 16,17.58 C 16,18.4693 14.92,18.92 14.2907,18.2907 L 11,15 L 8,15 C 7.45067,15 7,14.5493 7,14 Z M 8.99467,5.92133 L 11.536,8.46267 L 14.2907,5.7 C 14.92,5.06933 16,5.52 16,6.41067 L 16,12.928 L 18.876,15.804 C 18.9667,15.8947 19.0373,15.9973 19.0867,16.1093 C 19.896,14.9213 20.3693,13.4867 20.3693,11.9427 C 20.3693,7.85067 17.0507,4.532 12.956,4.532 C 11.428,4.532 10.008,4.99333 8.828,5.78533 L 8.82933,5.78667 C 8.88667,5.824 8.94267,5.86933 8.99467,5.92133 Z M 12.956,1.82667 C 18.544,1.82667 23.0733,6.356 23.0733,11.9427 C 23.0733,17.5293 18.544,22.0587 12.956,22.0587 C 7.368,22.0587 2.83867,17.5293 2.83867,11.9427 C 2.83867,6.356 7.368,1.82667 12.956,1.82667 Z "/>
</svg>